HIERARCHY
ROOT Hips
{
	OFFSET -0.001795 -0.223333 0.028219
	CHANNELS 6 Xposition Yposition Zposition Zrotation Yrotation Xrotation 
	JOINT LeftUpLeg
	{
		OFFSET 0.069520 -0.091406 -0.006815
		CHANNELS 3 Zrotation Yrotation Xrotation
		JOINT LeftLeg
		{
			OFFSET 0.034277 -0.375199 -0.004496
			CHANNELS 3 Zrotation Yrotation Xrotation
			JOINT LeftFoot
			{
				OFFSET -0.013596 -0.397961 -0.043693
				CHANNELS 3 Zrotation Yrotation Xrotation
				JOINT LeftToe
				{
					OFFSET 0.026358 -0.055791 0.119288
					CHANNELS 3 Zrotation Yrotation Xrotation
					End Site
					{
						OFFSET 0.000000 0.000000 0.000000
					}
				}
			}
		}
	}
	JOINT RightUpLeg
	{
		OFFSET -0.067670 -0.090522 -0.004320
		CHANNELS 3 Zrotation Yrotation Xrotation
		JOINT RightLeg
		{
			OFFSET -0.038290 -0.382569 -0.008850
			CHANNELS 3 Zrotation Yrotation Xrotation
			JOINT RightFoot
			{
				OFFSET 0.015774 -0.398415 -0.042312
				CHANNELS 3 Zrotation Yrotation Xrotation
				JOINT RightToe
				{
					OFFSET -0.025372 -0.048144 0.123348
					CHANNELS 3 Zrotation Yrotation Xrotation
					End Site
					{
						OFFSET 0.000000 0.000000 0.000000
					}
				}
			}
		}
	}
	JOINT Spine
	{
		OFFSET -0.002533 0.108963 -0.026696
		CHANNELS 3 Zrotation Yrotation Xrotation
		JOINT Spine1
		{
			OFFSET 0.005487 0.135180 0.001092
			CHANNELS 3 Zrotation Yrotation Xrotation
			JOINT Spine2
			{
				OFFSET 0.001457 0.052922 0.025425
				CHANNELS 3 Zrotation Yrotation Xrotation
				JOINT Neck
				{
					OFFSET -0.002778 0.213870 -0.042857
					CHANNELS 3 Zrotation Yrotation Xrotation
					JOINT Head
					{
						OFFSET 0.005152 0.064970 0.051349
						CHANNELS 3 Zrotation Yrotation Xrotation
						End Site
						{
							OFFSET 0.000000 0.000000 0.000000
						}
					}
				}
				JOINT LeftShoulder
				{
					OFFSET 0.078845 0.121749 -0.034090
					CHANNELS 3 Zrotation Yrotation Xrotation
					JOINT LeftArm
					{
						OFFSET 0.090977 0.030469 -0.008868
						CHANNELS 3 Zrotation Yrotation Xrotation
						JOINT LeftForeArm
						{
							OFFSET 0.259612 -0.012772 -0.027456
							CHANNELS 3 Zrotation Yrotation Xrotation
							JOINT LeftHand
							{
								OFFSET 0.249234 0.008986 -0.001171
								CHANNELS 3 Zrotation Yrotation Xrotation
								End Site
								{
									OFFSET 0.000000 0.000000 0.000000
								}
							}
						}
					}
				}
				JOINT RightShoulder
				{
					OFFSET -0.081759 0.118833 -0.038615
					CHANNELS 3 Zrotation Yrotation Xrotation
					JOINT RightArm
					{
						OFFSET -0.096012 0.032551 -0.009143
						CHANNELS 3 Zrotation Yrotation Xrotation
						JOINT RightForeArm
						{
							OFFSET -0.253742 -0.013329 -0.021401
							CHANNELS 3 Zrotation Yrotation Xrotation
							JOINT RightHand
							{
								OFFSET -0.255298 0.007772 -0.005559
								CHANNELS 3 Zrotation Yrotation Xrotation
								End Site
								{
									OFFSET 0.000000 0.000000 0.000000
								}
							}
						}
					}
				}
			}
		}
	}
}
MOTION
Frames: 17
Frame Time: 0.050000
-0.022852 0.949769 0.011455 -1.138600 -0.549465 7.490021 4.533370 -0.378520 -4.762724 4.175600 -0.281400 -2.369748 -0.137859 4.608237 13.006823 0.000000 0.000000 0.000000 -5.223108 0.619784 -7.222356 -0.843289 0.072691 -0.285161 0.112439 -5.491114 14.113085 0.000000 0.000000 0.000000 -2.153316 0.253352 -7.795504 2.089655 -1.032817 1.069697 1.420269 -1.821734 0.672483 0.904199 -0.947327 3.234638 0.000000 0.000000 0.000000 -4.920544 5.570799 -2.523969 -24.809959 -16.867728 0.157301 174.956974 -65.358678 -163.828631 0.000000 0.000000 0.000000 2.052562 -1.256911 -0.699613 29.089868 19.863220 1.636921 -119.828301 44.216863 -65.304558 0.000000 0.000000 0.000000 
-0.023730 0.949320 0.011157 -1.633300 0.409447 7.999489 5.554086 -0.415523 -5.556675 3.657830 -0.233159 -2.331759 -0.512226 4.036330 12.744077 0.000000 0.000000 0.000000 -4.573992 0.633592 -7.291840 -0.786055 0.040635 -0.879860 -0.297800 -6.160169 14.350747 0.000000 0.000000 0.000000 -2.062522 0.253476 -7.928349 2.121702 -1.052952 1.059468 2.070138 -1.818576 0.983112 1.986912 -1.868519 3.253594 0.000000 0.000000 0.000000 -5.969280 6.950781 -3.224510 -28.212697 -15.130381 -0.055364 170.314353 -62.193800 -155.523034 0.000000 0.000000 0.000000 4.943559 -2.897533 -1.701946 32.903674 19.599054 1.920968 -117.896860 42.379721 -60.600380 0.000000 0.000000 0.000000 
-0.024961 0.949281 0.010736 -1.886168 1.092065 8.333911 6.146526 -0.418712 -5.545346 3.398546 -0.144343 -3.318522 -0.880692 3.590472 12.948067 0.000000 0.000000 0.000000 -4.459057 0.643181 -7.456215 -0.251394 -0.019109 -1.092923 -0.593333 -6.634867 14.523681 0.000000 0.000000 0.000000 -2.025821 0.258232 -8.336308 2.305373 -1.155633 1.230784 2.608764 -2.125265 1.097090 2.410147 -2.229754 3.320080 0.000000 0.000000 0.000000 -7.447347 8.610034 -4.119175 -33.254535 -13.082785 -0.425651 167.828361 -59.097965 -149.762249 0.000000 0.000000 0.000000 7.031196 -4.190208 -2.543340 39.880378 19.644652 2.580824 -118.725656 41.053289 -59.602803 0.000000 0.000000 0.000000 
-0.025975 0.948353 0.010191 -2.291304 2.122209 8.439918 7.041772 -0.423921 -5.516634 2.943584 -0.060958 -4.068668 -1.334882 2.916920 12.761766 0.000000 0.000000 0.000000 -3.817251 0.657856 -7.548376 -0.314889 -0.004731 -0.913797 -1.107064 -7.375155 14.399516 0.000000 0.000000 0.000000 -2.118633 0.240610 -8.156267 2.629153 -1.311492 1.096668 3.428759 -2.090379 1.003897 3.389858 -3.077978 3.443470 0.000000 0.000000 0.000000 -9.100277 9.529555 -4.813082 -37.777253 -12.094484 -0.652966 164.001420 -56.736781 -141.945262 0.000000 0.000000 0.000000 9.213554 -5.674118 -3.502075 46.188727 19.114745 2.995924 -120.787571 39.633988 -59.301533 0.000000 0.000000 0.000000 
-0.026363 0.948058 0.009331 -2.397782 2.368997 8.285805 7.208120 -0.416749 -5.271679 2.947057 -0.040164 -4.414190 -1.462019 2.735525 12.740471 0.000000 0.000000 0.000000 -3.745123 0.666591 -7.704616 -0.150454 0.000994 -0.372939 -1.254910 -7.566724 14.237375 0.000000 0.000000 0.000000 -1.875287 0.247470 -8.237397 2.924028 -1.511864 1.901276 3.790150 -1.904112 0.558573 3.578424 -3.228650 3.405323 0.000000 0.000000 0.000000 -9.513403 10.607880 -5.371870 -41.098244 -11.144187 -0.909743 159.016790 -56.290140 -133.278971 0.000000 0.000000 0.000000 10.818083 -6.770814 -4.256156 51.754340 18.527210 3.310137 -124.275344 40.981150 -64.678540 0.000000 0.000000 0.000000 
-0.026089 0.947529 0.008040 -2.506782 2.011572 8.337406 7.525465 -0.410047 -5.248471 2.510280 -0.005951 -4.541607 -1.252943 2.980862 12.623669 0.000000 0.000000 0.000000 -3.561502 0.695792 -8.001847 -0.372826 0.031099 -0.200928 -1.115935 -7.334807 14.085941 0.000000 0.000000 0.000000 -1.539952 0.269244 -8.445325 2.818406 -1.486321 2.357482 4.499172 -1.481005 0.273866 3.597441 -3.344898 4.275167 0.000000 0.000000 0.000000 -9.985266 10.700471 -5.508450 -42.277650 -10.128608 -1.234543 155.584838 -56.424814 -127.786246 0.000000 0.000000 0.000000 12.002506 -7.113519 -4.637263 55.227606 17.525375 3.186733 -127.826072 43.280918 -71.994237 0.000000 0.000000 0.000000 
-0.025153 0.947474 0.006307 -2.230588 2.266084 8.412211 7.133860 -0.424831 -5.461501 2.597507 -0.006295 -4.616014 -1.409078 2.782184 12.677812 0.000000 0.000000 0.000000 -3.712899 0.719986 -8.467963 -0.723937 0.095028 0.395349 -1.301222 -7.614050 14.007458 0.000000 0.000000 0.000000 -1.363019 0.276469 -8.563023 3.102695 -1.664515 2.835047 4.480971 -1.210552 -0.481241 3.322076 -3.145688 4.583493 0.000000 0.000000 0.000000 -9.534970 10.636542 -5.427646 -42.142258 -10.088415 -1.183853 148.379400 -58.333145 -118.788797 0.000000 0.000000 0.000000 12.427835 -7.386072 -4.806025 56.733966 16.766083 3.031586 -132.194579 45.106867 -79.823590 0.000000 0.000000 0.000000 
-0.023927 0.947841 0.004080 -1.950623 1.987271 8.590428 6.544295 -0.433209 -5.601232 2.894804 -0.012222 -4.847299 -1.341630 2.954904 12.941849 0.000000 0.000000 0.000000 -3.841049 0.760132 -9.103717 -1.252119 0.176216 0.872251 -1.206941 -7.498557 14.066068 0.000000 0.000000 0.000000 -1.328513 0.283536 -8.649299 3.295319 -1.781129 3.169010 4.793807 -0.702430 -0.795695 3.530051 -3.347824 4.748339 0.000000 0.000000 0.000000 -9.227065 10.373953 -5.277673 -41.346313 -10.190621 -1.113177 141.593994 -59.830196 -110.868526 0.000000 0.000000 0.000000 12.490594 -6.915519 -4.572382 57.047722 16.825596 3.133349 -135.008746 45.766109 -84.314746 0.000000 0.000000 0.000000 
-0.022772 0.948307 0.001754 -1.560051 2.443554 8.883085 6.196975 -0.465759 -6.100383 2.688599 0.009879 -4.983986 -1.647749 2.627989 13.232816 0.000000 0.000000 0.000000 -4.277447 0.755465 -9.358721 -1.326736 0.175553 0.676879 -1.420004 -7.879620 14.359825 0.000000 0.000000 0.000000 -1.383551 0.273194 -8.482085 3.445374 -1.844501 2.928342 4.634207 -0.854094 -1.090614 2.957834 -2.792313 4.203022 0.000000 0.000000 0.000000 -9.242306 10.093455 -5.173173 -41.133788 -11.237709 -0.746919 134.251815 -60.382317 -101.849447 0.000000 0.000000 0.000000 12.196937 -6.252970 -4.205148 56.734241 17.206994 3.332325 -136.022859 45.247688 -84.857751 0.000000 0.000000 0.000000 
-0.021977 0.949013 -0.000363 -1.307832 2.799434 8.974014 5.659320 -0.489601 -6.383790 3.099121 -0.009518 -5.041480 -1.907064 2.375877 13.525622 0.000000 0.000000 0.000000 -4.523511 0.757389 -9.648490 -1.431576 0.200218 0.917207 -1.582089 -8.172892 14.622839 0.000000 0.000000 0.000000 -1.627445 0.255767 -8.268452 3.799583 -2.046233 3.141872 4.387977 -0.757703 -1.809310 3.623739 -3.378962 4.429799 0.000000 0.000000 0.000000 -10.198250 9.441271 -5.115644 -40.854809 -11.853067 -0.491439 130.045220 -60.591402 -97.073835 0.000000 0.000000 0.000000 11.945137 -5.681461 -3.870982 56.116653 17.405347 3.465159 -134.884570 44.676572 -82.365205 0.000000 0.000000 0.000000 
-0.021587 0.949651 -0.002148 -1.237712 3.474198 8.963273 5.429639 -0.503176 -6.452530 3.413064 -0.004611 -5.373036 -2.325446 1.915616 13.814272 0.000000 0.000000 0.000000 -4.562927 0.740284 -9.537174 -1.442695 0.195202 0.764493 -1.858745 -8.637845 14.983617 0.000000 0.000000 0.000000 -2.017777 0.231889 -8.149103 3.969669 -2.161976 3.331998 4.240766 -1.039350 -1.997777 3.703226 -3.360017 3.802132 0.000000 0.000000 0.000000 -10.991977 8.968242 -5.074294 -41.382223 -13.128800 -0.056944 127.223114 -61.124349 -94.347388 0.000000 0.000000 0.000000 12.279870 -5.235817 -3.715914 55.359671 17.252100 3.349175 -132.460540 44.309977 -78.647974 0.000000 0.000000 0.000000 
-0.021327 0.949888 -0.003767 -1.219982 4.042224 9.029641 5.393378 -0.525489 -6.778423 3.491026 -0.008830 -5.337576 -2.626989 1.548549 13.899647 0.000000 0.000000 0.000000 -4.831239 0.722541 -9.579406 -0.958374 0.137670 0.711239 -2.105978 -9.031472 15.210468 0.000000 0.000000 0.000000 -2.232011 0.216944 -8.013706 3.993639 -2.181447 3.307468 3.995053 -1.131214 -2.384998 3.972421 -3.558153 3.619184 0.000000 0.000000 0.000000 -11.679851 7.853630 -4.743531 -41.849887 -13.931911 0.254533 126.274092 -61.818064 -94.202342 0.000000 0.000000 0.000000 12.709751 -4.789682 -3.551586 54.788300 16.399208 2.943858 -130.291194 45.384558 -77.415155 0.000000 0.000000 0.000000 
-0.020851 0.950125 -0.005378 -1.392111 4.462919 8.915534 5.574913 -0.524811 -6.744148 3.497168 0.005091 -5.548545 -2.855893 1.274399 13.979568 0.000000 0.000000 0.000000 -4.762556 0.707111 -9.343695 -0.743354 0.101101 0.435750 -2.248479 -9.267942 15.486506 0.000000 0.000000 0.000000 -2.352140 0.207466 -7.998562 3.881889 -2.138236 3.371265 3.937066 -1.237397 -2.184543 4.215518 -3.770191 3.615823 0.000000 0.000000 0.000000 -11.926565 7.167709 -4.493068 -42.680525 -14.315564 0.390315 128.836295 -62.958146 -98.609210 0.000000 0.000000 0.000000 12.778960 -4.647589 -3.474856 53.912979 15.633381 2.502511 -126.220430 46.643562 -74.278986 0.000000 0.000000 0.000000 
-0.019861 0.950390 -0.006991 -1.609349 4.447420 8.918273 5.677636 -0.525398 -6.798182 3.612638 0.005577 -5.655529 -2.848408 1.304185 14.028281 0.000000 0.000000 0.000000 -4.792683 0.699741 -9.228852 -0.402889 0.044030 -0.005083 -2.168316 -9.185544 15.803597 0.000000 0.000000 0.000000 -2.243567 0.208540 -7.780571 3.552325 -1.988147 3.586086 4.134195 -1.310883 -2.138213 4.060840 -3.660118 3.778122 0.000000 0.000000 0.000000 -12.436512 6.754231 -4.379341 -43.873187 -14.392624 0.444275 133.666980 -63.974526 -105.574566 0.000000 0.000000 0.000000 13.094637 -4.411306 -3.434595 52.717340 15.357455 2.290089 -121.860208 47.512762 -70.730721 0.000000 0.000000 0.000000 
-0.018314 0.950330 -0.008738 -1.570334 4.534920 8.815569 5.545690 -0.530705 -6.886011 3.587369 -0.000938 -5.525908 -2.885055 1.221776 13.936446 0.000000 0.000000 0.000000 -5.066754 0.683297 -9.222289 -0.176034 0.020296 0.030263 -2.194199 -9.235187 15.908248 0.000000 0.000000 0.000000 -2.187015 0.204331 -7.467583 3.279266 -1.871478 3.839508 4.298842 -1.520655 -2.012586 3.763195 -3.444467 4.055185 0.000000 0.000000 0.000000 -13.245244 6.603786 -4.420917 -45.172016 -13.480794 0.128746 141.620516 -65.048981 -116.783697 0.000000 0.000000 0.000000 13.262867 -4.329628 -3.453619 52.135631 14.954202 2.058641 -117.411585 48.661104 -67.748788 0.000000 0.000000 0.000000 
-0.016201 0.950621 -0.010648 -1.493989 4.493934 8.801081 5.334058 -0.536819 -6.973387 3.544499 0.001254 -5.527930 -2.891617 1.229772 13.988381 0.000000 0.000000 0.000000 -5.519265 0.665847 -9.334135 0.204745 -0.021521 0.049834 -2.141205 -9.189152 16.146731 0.000000 0.000000 0.000000 -2.193540 0.197971 -7.017358 3.179124 -1.848429 4.186114 4.412735 -1.525113 -2.285323 3.675714 -3.399870 4.348000 0.000000 0.000000 0.000000 -14.096023 6.541549 -4.533097 -47.075328 -12.932946 -0.024221 149.145675 -66.001235 -127.809924 0.000000 0.000000 0.000000 13.785988 -4.013860 -3.404761 50.712919 14.558987 1.835462 -113.179062 49.529275 -64.761264 0.000000 0.000000 0.000000 
-0.014038 0.950498 -0.012726 -1.317933 4.441235 8.888714 4.981550 -0.552257 -7.166395 3.555150 0.001618 -5.541746 -2.876285 1.240783 13.967724 0.000000 0.000000 0.000000 -6.008113 0.654570 -9.623257 0.438190 -0.042984 0.188253 -2.122526 -9.179793 16.242738 0.000000 0.000000 0.000000 -1.998442 0.194874 -6.455256 3.022216 -1.777397 4.331804 4.349840 -1.568537 -2.410213 3.510538 -3.202612 3.957333 0.000000 0.000000 0.000000 -14.679930 6.646755 -4.677578 -49.267845 -12.497823 -0.157434 155.516962 -66.414696 -137.031803 0.000000 0.000000 0.000000 14.101802 -4.018288 -3.470704 50.379197 14.138734 1.656166 -110.915842 50.428440 -63.778045 0.000000 0.000000 0.000000 
